<svg xmlns="http://www.w3.org/2000/svg" viewBox="0 0 200 200" width="200" height="200">
  <!-- Ліва частина крила -->
  <path d="M20,100 C30,60 60,50 80,70 C100,90 110,120 100,140 C80,160 40,160 20,140 C10,120 10,90 20,100 Z" fill="orange" />
  <circle cx="40" cy="80" r="5" fill="yellow" />
  <circle cx="50" cy="50" r="5" fill="white" />

  <!-- Права частина крила -->
  <path d="M180,100 C170,60 140,50 120,70 C100,90 90,120 100,140 C120,160 160,160 180,140 C190,120 190,90 180,100 Z" fill="orange" />
  <circle cx="160" cy="80" r="5" fill="yellow" />
  <circle cx="150" cy="50" r="5" fill="white" />

  <!-- Тіло метелика -->
  <path d="M100,100 C110,130 90,170 100,170 C110,170 120,130 100,100 Z" fill="black" />

  <!-- Антени -->
  <path d="M95,60 C95,50 105,50 105,60" stroke="black" stroke-width="2" />
  <path d="M105,60 C105,50 115,50 115,60" stroke="black" stroke-width="2" />
</svg>
